<?xml version="1.0" encoding="UTF-8"?>
<svg xmlns="http://www.w3.org/2000/svg" version="1.1" viewBox="0 0 543.11 543.11">
  <!-- Generator: Adobe Illustrator 29.4.0, SVG Export Plug-In . SVG Version: 2.1.0 Build 152)  -->
  <defs>
    <style>
      .st0 {
        fill: #1769ff;
        fill-rule: evenodd;
      }
    </style>
  </defs>
  <g id="Layer_1" image-rendering="optimizeQuality" shape-rendering="geometricPrecision" text-rendering="geometricPrecision">
    <path class="st0" d="M271.55,0c149.98,0,271.55,121.58,271.55,271.55s-121.58,271.55-271.55,271.55S0,421.53,0,271.55,121.58,0,271.55,0ZM214.48,186.44c8.01,0,15.22.7,21.79,2.13,6.59,1.37,12.16,3.72,16.88,6.9,4.67,3.19,8.27,7.44,10.93,12.73,2.55,5.25,3.82,11.83,3.82,19.63,0,8.44-1.9,15.44-5.74,21.07-3.87,5.62-9.49,10.19-17.04,13.8,10.29,2.97,17.88,8.17,22.98,15.55,5.09,7.44,7.54,16.35,7.54,26.84,0,8.49-1.65,15.76-4.87,21.91-3.29,6.21-7.75,11.25-13.21,15.13-5.52,3.92-11.88,6.79-19,8.65-7.06,1.85-14.33,2.81-21.84,2.81h-81.03s0-167.13,0-167.13h78.8s0-.02,0-.02h0s0,0,0,0ZM313,199.92h67.77v16.51h-67.77v-16.51h0ZM328.06,324.51c5,4.87,12.16,7.32,21.5,7.32,6.69,0,12.53-1.71,17.35-5.1,4.82-3.4,7.75-6.99,8.87-10.71h29.28c-4.73,14.59-11.83,24.95-21.59,31.21-9.61,6.26-21.38,9.44-35.03,9.44-9.56,0-18.1-1.55-25.79-4.57-7.69-3.07-14.11-7.37-19.53-13.01-5.25-5.62-9.39-12.31-12.31-20.16-2.87-7.79-4.34-16.45-4.34-25.79s1.49-17.51,4.45-25.31c3.02-7.86,7.17-14.59,12.68-20.28,5.51-5.68,11.99-10.19,19.63-13.48,7.59-3.29,15.98-4.94,25.26-4.94,10.23,0,19.2,1.97,26.9,6,7.64,3.97,13.96,9.34,18.89,16.03,4.94,6.69,8.44,14.38,10.62,22.97,2.18,8.59,2.92,17.56,2.32,26.96h-87.39c0,9.49,3.19,18.58,8.22,23.39v.04s0,0,0,0h0ZM366.21,260.95c-3.92-4.35-10.67-6.74-18.78-6.74-5.32,0-9.71.9-13.21,2.7-3.45,1.8-6.26,4.02-8.44,6.69-2.12,2.65-3.62,5.52-4.44,8.53-.85,2.92-1.37,5.62-1.55,7.96h54.13c-.8-8.49-3.72-14.75-7.69-19.15h-.02s0,0,0,0ZM209.69,253.93c6.52,0,11.93-1.55,16.17-4.67,4.24-3.07,6.26-8.17,6.26-15.18,0-3.86-.69-7.12-2.07-9.61-1.42-2.49-3.29-4.46-5.67-5.84-2.34-1.43-4.98-2.4-8.11-2.92-3.02-.58-6.21-.84-9.44-.84h-34.38v39.05h37.25v.02h-.01ZM211.71,325.09c3.62,0,7.06-.32,10.28-1.07,3.29-.74,6.21-1.85,8.65-3.54,2.44-1.65,4.52-3.82,5.99-6.69,1.49-2.82,2.18-6.42,2.18-10.82,0-8.59-2.45-14.75-7.27-18.47-4.82-3.67-11.24-5.47-19.2-5.47h-39.9v45.99h39.27s0,.07,0,.07h0Z"/>
  </g>
</svg>