<svg width="30" height="30" viewBox="0 0 30 30" fill="none" xmlns="http://www.w3.org/2000/svg">
<g clip-path="url(#clip0_767_6344)">
<g clip-path="url(#clip1_767_6344)">
<g clip-path="url(#clip2_767_6344)">
<path d="M15 30C23.2843 30 30 23.2843 30 15C30 6.71573 23.2843 0 15 0C6.71573 0 0 6.71573 0 15C0 23.2843 6.71573 30 15 30Z" fill="white"/>
<path d="M15.0008 29.7C23.1194 29.7 29.7008 23.1186 29.7008 15C29.7008 6.88146 23.1194 0.300049 15.0008 0.300049C6.88219 0.300049 0.300781 6.88146 0.300781 15C0.300781 23.1186 6.88219 29.7 15.0008 29.7Z" stroke="#DBDBDB" stroke-width="0.6"/>
<path d="M18.6041 7.80305L16.6589 7.80005C14.4737 7.80005 13.0589 9.24905 13.0589 11.4918V13.1934H11.1029C11.0217 13.1934 10.9439 13.2257 10.8865 13.2831C10.8291 13.3405 10.7969 13.4183 10.7969 13.4994V15.9654C10.7969 16.0466 10.8291 16.1244 10.8865 16.1818C10.9439 16.2392 11.0217 16.2714 11.1029 16.2714H13.0589V22.494C13.0589 22.5752 13.0911 22.653 13.1485 22.7104C13.2059 22.7678 13.2837 22.8 13.3649 22.8H15.9167C15.9978 22.8 16.0757 22.7678 16.133 22.7104C16.1904 22.653 16.2227 22.5752 16.2227 22.494V16.2714H18.5117C18.5928 16.2714 18.6707 16.2392 18.728 16.1818C18.7854 16.1244 18.8177 16.0466 18.8177 15.9654V13.4994C18.8177 13.4183 18.7854 13.3405 18.728 13.2831C18.6707 13.2257 18.5928 13.1934 18.5117 13.1934H16.2251V11.7534C16.2251 11.0598 16.3901 10.7076 17.2937 10.7076H18.6041C18.6852 10.7076 18.7631 10.6754 18.8205 10.618C18.8778 10.5606 18.9101 10.4828 18.9101 10.4016V8.10905C18.9101 8.02789 18.8778 7.95006 18.8205 7.89267C18.7631 7.83529 18.6852 7.80305 18.6041 7.80305Z" fill="#3A559F"/>
</g>
</g>
</g>
<defs>
<clipPath id="clip0_767_6344">
<rect width="30" height="30" rx="15" fill="white"/>
</clipPath>
<clipPath id="clip1_767_6344">
<rect width="30" height="30" fill="white"/>
</clipPath>
<clipPath id="clip2_767_6344">
<rect width="30" height="30" fill="white"/>
</clipPath>
</defs>
</svg>
