<svg width="30" height="30" viewBox="0 0 30 30" fill="none" xmlns="http://www.w3.org/2000/svg">
<g clip-path="url(#clip0_767_6349)">
<g clip-path="url(#clip1_767_6349)">
<g clip-path="url(#clip2_767_6349)">
<path d="M15 30C23.2843 30 30 23.2843 30 15C30 6.71573 23.2843 0 15 0C6.71573 0 0 6.71573 0 15C0 23.2843 6.71573 30 15 30Z" fill="white"/>
<path d="M15.0008 29.7C23.1194 29.7 29.7008 23.1186 29.7008 15C29.7008 6.88146 23.1194 0.300049 15.0008 0.300049C6.88219 0.300049 0.300781 6.88146 0.300781 15C0.300781 23.1186 6.88219 29.7 15.0008 29.7Z" stroke="#DBDBDB" stroke-width="0.6"/>
<path d="M11.2924 12.6091H8.28102C8.21736 12.6091 8.15632 12.6344 8.11131 12.6794C8.0663 12.7244 8.04102 12.7855 8.04102 12.8491V22.5229C8.04102 22.5866 8.0663 22.6476 8.11131 22.6926C8.15632 22.7376 8.21736 22.7629 8.28102 22.7629H11.2924C11.3561 22.7629 11.4171 22.7376 11.4621 22.6926C11.5071 22.6476 11.5324 22.5866 11.5324 22.5229V12.8509C11.5327 12.8193 11.5266 12.7879 11.5147 12.7585C11.5027 12.7292 11.4851 12.7025 11.4628 12.6801C11.4405 12.6576 11.4139 12.6397 11.3847 12.6276C11.3554 12.6154 11.3241 12.6091 11.2924 12.6091Z" fill="#0056B3"/>
<path d="M9.78814 7.80005C9.39543 7.80005 9.01155 7.91651 8.68504 8.13469C8.35853 8.35288 8.10406 8.66299 7.95381 9.02581C7.80355 9.38863 7.76427 9.78786 7.84093 10.173C7.91758 10.5581 8.10673 10.9119 8.38446 11.1896C8.66218 11.4672 9.016 11.6562 9.40117 11.7328C9.78634 11.8093 10.1856 11.7699 10.5483 11.6195C10.9111 11.4692 11.2211 11.2146 11.4392 10.888C11.6573 10.5615 11.7737 10.1775 11.7735 9.78485C11.7726 9.25864 11.5631 8.75426 11.1909 8.38222C10.8188 8.01019 10.3143 7.80084 9.78814 7.80005Z" fill="#0056B3"/>
<path d="M18.953 12.3691C18.4588 12.3593 17.9681 12.453 17.5124 12.6443C17.0567 12.8356 16.646 13.1201 16.307 13.4797V12.8515C16.307 12.82 16.3008 12.7888 16.2887 12.7597C16.2766 12.7305 16.259 12.7041 16.2367 12.6818C16.2144 12.6595 16.1879 12.6418 16.1588 12.6298C16.1297 12.6177 16.0985 12.6115 16.067 12.6115H13.1834C13.1518 12.6115 13.1206 12.6177 13.0915 12.6298C13.0624 12.6418 13.0359 12.6595 13.0137 12.6818C12.9914 12.7041 12.9737 12.7305 12.9616 12.7597C12.9496 12.7888 12.9434 12.82 12.9434 12.8515V22.5253C12.9434 22.589 12.9686 22.65 13.0137 22.695C13.0587 22.74 13.1197 22.7653 13.1834 22.7653H16.1882C16.2518 22.7653 16.3129 22.74 16.3579 22.695C16.4029 22.65 16.4282 22.589 16.4282 22.5253V17.7391C16.4282 16.1263 16.8662 15.4981 17.9882 15.4981C19.2128 15.4981 19.3082 16.5055 19.3082 17.8225V22.5259C19.3082 22.5896 19.3334 22.6506 19.3785 22.6956C19.4235 22.7406 19.4845 22.7659 19.5482 22.7659H22.5542C22.6178 22.7659 22.6789 22.7406 22.7239 22.6956C22.7689 22.6506 22.7942 22.5896 22.7942 22.5259V17.2195C22.8008 14.8207 22.3436 12.3691 18.953 12.3691Z" fill="#0056B3"/>
</g>
</g>
</g>
<defs>
<clipPath id="clip0_767_6349">
<rect width="30" height="30" rx="15" fill="white"/>
</clipPath>
<clipPath id="clip1_767_6349">
<rect width="30" height="30" fill="white"/>
</clipPath>
<clipPath id="clip2_767_6349">
<rect width="30" height="30" fill="white"/>
</clipPath>
</defs>
</svg>
