<svg width="30" height="30" viewBox="0 0 30 30" fill="none" xmlns="http://www.w3.org/2000/svg">
<g clip-path="url(#clip0_767_6369)">
<g clip-path="url(#clip1_767_6369)">
<path d="M26.25 3.75H3.75V26.25H26.25V3.75Z" fill="#EFEFEF"/>
<path d="M15 17.3662L26.25 26.2499V8.71118L15 17.3662Z" fill="#CFD8DC"/>
<path d="M27.1875 3.75H26.25L15 12.6337L3.75 3.75H2.8125C1.26 3.75 0 5.01 0 6.5625V23.4375C0 24.99 1.26 26.25 2.8125 26.25H3.75V8.71125L15 17.3644L26.25 8.70937V26.25H27.1875C28.74 26.25 30 24.99 30 23.4375V6.5625C30 5.01 28.74 3.75 27.1875 3.75Z" fill="#F44336"/>
</g>
</g>
<defs>
<clipPath id="clip0_767_6369">
<rect width="30" height="30" fill="white"/>
</clipPath>
<clipPath id="clip1_767_6369">
<rect width="30" height="30" fill="white"/>
</clipPath>
</defs>
</svg>
