<svg width="30" height="30" viewBox="0 0 30 30" fill="none" xmlns="http://www.w3.org/2000/svg">
<g clip-path="url(#clip0_767_6368)">
<g clip-path="url(#clip1_767_6368)">
<g clip-path="url(#clip2_767_6368)">
<path d="M15 30C23.2843 30 30 23.2843 30 15C30 6.71573 23.2843 0 15 0C6.71573 0 0 6.71573 0 15C0 23.2843 6.71573 30 15 30Z" fill="#25D366"/>
<path d="M19.0144 16.1398L19.0085 16.1903C17.5356 15.4586 17.3848 15.3583 17.1909 15.6437C17.0592 15.8413 16.6787 16.2898 16.5587 16.4222C16.4387 16.5547 16.3246 16.5635 16.1263 16.4727C15.5357 16.2379 14.9909 15.9013 14.5166 15.4783C14.0801 15.072 13.7058 14.6035 13.4058 14.0881C13.209 13.7464 13.6202 13.701 13.9912 12.9905C14.0181 12.9353 14.0307 12.8741 14.0277 12.8128C14.0248 12.7514 14.0064 12.6917 13.9744 12.6393C13.9239 12.5383 13.5244 11.5542 13.3568 11.162C13.1892 10.7698 13.0305 10.8203 12.9068 10.8203C12.7469 10.78 12.5796 10.78 12.4197 10.8202C12.2599 10.8604 12.1125 10.9396 11.9907 11.0508C10.91 12.2391 11.1858 13.4654 12.107 14.7686C13.9253 17.1481 14.8934 17.5878 16.6648 18.1937C17.0728 18.3173 17.5037 18.3451 17.9241 18.2749C18.2028 18.2175 18.4667 18.1031 18.699 17.9387C18.9314 17.7744 19.1272 17.5637 19.2741 17.32C19.4072 17.0218 19.4492 16.6909 19.3948 16.3688C19.3451 16.2781 19.2134 16.2276 19.0129 16.1383L19.0144 16.1398Z" fill="white"/>
<path d="M21.0315 8.86442C19.9063 7.75784 18.4802 7.0069 16.9312 6.70518C15.3821 6.40347 13.7785 6.56433 12.3202 7.16771C10.8619 7.77109 9.61345 8.7903 8.73042 10.0983C7.84739 11.4063 7.36884 12.9453 7.35443 14.5234C7.35301 15.922 7.72157 17.296 8.42272 18.5061L7.28711 22.6322L11.531 21.5215C12.748 22.1796 14.1146 22.5116 15.4979 22.4852C16.8812 22.4588 18.2342 22.0749 19.4252 21.3708C20.6162 20.6667 21.6047 19.6664 22.2947 18.4672C22.9847 17.268 23.3526 15.9106 23.3627 14.5271C23.3653 13.4797 23.1596 12.4422 22.7577 11.4749C22.3557 10.5077 21.7655 9.63003 21.0213 8.89295L21.0315 8.86442ZM22.0244 14.5037C22.0161 15.6753 21.6992 16.824 21.1057 17.8342C20.5122 18.8444 19.6631 19.6804 18.6437 20.258C17.6244 20.8357 16.4709 21.1346 15.2993 21.1247C14.1277 21.1147 12.9794 20.7963 11.97 20.2015L11.7308 20.0551L9.21882 20.7078L9.89199 18.2669L9.73248 18.0159C8.87286 16.6305 8.55274 14.9773 8.83308 13.3712C9.11342 11.765 9.97463 10.318 11.2527 9.30574C12.5309 8.29344 14.1366 7.78652 15.7643 7.88149C17.3919 7.97646 18.9278 8.66669 20.0795 9.82076C20.6989 10.4329 21.1902 11.1622 21.5246 11.9662C21.8591 12.7703 22.03 13.6329 22.0274 14.5037H22.0244Z" fill="white"/>
</g>
</g>
</g>
<defs>
<clipPath id="clip0_767_6368">
<rect width="30" height="30" fill="white"/>
</clipPath>
<clipPath id="clip1_767_6368">
<rect width="30" height="30" fill="white"/>
</clipPath>
<clipPath id="clip2_767_6368">
<rect width="30" height="30" fill="white"/>
</clipPath>
</defs>
</svg>
